# xmcd
#
# Track frame offsets:
#	150
#	18367
#	35577
#	54432
#	72335
#	88882
#	105720
#	122765
#	137425
#	154470
#	170965
#	191830
#	210055
#	226205
#	241500
#	260517
#
# Disc length: 3693 seconds
#
# Revision: 1
# Processed by: cddbd v1.5.1PL0 Copyright (c) Steve Scherf et al.
# Submitted via: CDex 1.50Beta5
#
DISCID=da0e6b10
DTITLE=美川憲一 - ベスト16
DYEAR=1996
DGENRE=Pop
TTITLE0=北国夜曲
TTITLE1=釧路の夜
TTITLE2=おんなの朝
TTITLE3=新潟ブルース
TTITLE4=みれん町
TTITLE5=お金をちょうだい
TTITLE6=生命のブルース
TTITLE7=さそり座の女
TTITLE8=幸せになりたい
TTITLE9=想い出おんな
TTITLE10=別れの川
TTITLE11=大阪の夜
TTITLE12=柳ヶ瀬ブルース
TTITLE13=ネオン化粧
TTITLE14=風の夜汽車
TTITLE15=信濃川慕情
EXTD=
EXTT0=
EXTT1=
EXTT2=
EXTT3=
EXTT4=
EXTT5=
EXTT6=
EXTT7=
EXTT8=
EXTT9=
EXTT10=
EXTT11=
EXTT12=
EXTT13=
EXTT14=
EXTT15=
PLAYORDER=
